<?xml version="1.0" encoding="UTF-8" standalone="no"?>
<svg viewBox="0 0 1772 1772" version="1.1" xmlns="http://www.w3.org/2000/svg" xmlns:xlink="http://www.w3.org/1999/xlink" xml:space="preserve" style="fill-rule:evenodd;clip-rule:evenodd;stroke-linejoin:round;stroke-miterlimit:2;">
    <g transform="matrix(1,0,0,1,-875.4875,-360.008333)">
        <g transform="matrix(4.166667,0,0,4.166667,0,0)">
            <g>
                <g transform="matrix(-1,0,0,1,845.43,2.725)">
                    <rect x="210.117" y="83.677" width="425.196" height="425.197" style="fill:rgb(99,100,102);"/>
                </g>
                <g transform="matrix(1,0,0,1,0,-154.535)">
                    <path d="M361.135,397.181C361.135,390.949 357.289,384.096 349.656,384.096L335.637,384.096L335.637,409.328L349.656,409.328C356.353,409.328 361.135,403.104 361.135,397.181M358.224,352.166C358.224,346.562 355.577,340.633 347.786,340.633L335.637,340.633L335.637,363.845L348.569,363.845C354.639,363.845 358.224,359.019 358.224,352.166M374.735,372.878C388.756,377.242 396.182,388.777 396.182,399.363C396.182,415.871 382.991,431.14 356.823,431.14L292.647,431.14L292.647,409.328L302.617,409.328L302.617,340.633L292.647,340.633L292.647,318.671L353.438,318.671C382.722,318.671 389.705,333.787 389.705,347.024C389.705,357.769 386.106,368.207 374.735,372.878" style="fill:rgb(255,203,3);fill-rule:nonzero;"/>
                </g>
                <g transform="matrix(1,0,0,1,0,-151.726)">
                    <path d="M550.594,337.823L550.594,386.739C550.594,417.425 527.698,431.14 499.036,431.14C471.156,431.14 450.437,417.273 450.437,386.739L450.437,337.823L440.625,337.823L440.625,315.862L493.431,315.862L493.431,337.823L483.617,337.823L483.617,385.186C483.617,398.415 487.354,407.61 502.308,407.61C514.146,407.61 519.288,398.583 519.288,385.186L519.288,337.823L509.473,337.823L509.473,315.862L560.408,315.862L560.408,337.823L550.594,337.823Z" style="fill:rgb(255,203,3);fill-rule:nonzero;"/>
                </g>
                <g transform="matrix(1,0,0,1,0,164.174)">
                    <path d="M345.451,249.972L345.451,271.784L292.646,271.784L292.646,249.972L302.304,249.972L302.304,181.129L292.646,181.129L292.646,159.318L393.271,159.318L394.051,193.433L366.011,193.898L365.545,188.295C364.921,181.282 364.609,181.129 356.978,181.129L335.64,181.129L335.64,205.74L345.609,205.74L345.609,198.729L369.752,198.729L369.752,233.624L345.609,233.624L345.609,226.145L335.64,226.145L335.64,249.972L345.451,249.972Z" style="fill:white;fill-rule:nonzero;"/>
                </g>
                <g transform="matrix(1,0,0,1,0,165.419)">
                    <path d="M509.506,273.03C500.312,273.03 490.5,270.227 481.618,264.617L481.618,270.539L455.61,270.539L455.61,234.089L483.179,234.089C483.954,243.747 491.585,249.669 501.402,249.669C509.814,249.669 512.617,244.675 512.617,240.943C512.617,234.556 504.673,231.131 494.237,228.012C477.727,222.879 455.451,216.176 455.451,189.069C455.451,177.078 460.438,168.669 467.914,163.367C474.3,158.854 483.179,156.827 491.902,156.827C501.871,156.827 511.372,159.484 516.354,163.685L516.354,158.073L542.209,158.073L542.209,192.038L514.797,192.038C512.617,184.088 507.007,179.105 498.905,179.105C492.369,179.105 488.474,182.224 488.474,187.205C488.474,193.906 497.042,197.175 507.788,200.602C524.3,205.897 546.885,212.753 546.885,237.051C546.885,259.012 530.999,273.03 509.506,273.03" style="fill:white;fill-rule:nonzero;"/>
                </g>
            </g>
        </g>
    </g>
</svg>
